<?xml version="1.0" encoding="UTF-8" standalone="no"?>
<svg version="1.1" xmlns="http://www.w3.org/2000/svg" xmlns:xlink="http://www.w3.org/1999/xlink" width="649.052" height="238.067">
	<g id="dp_dp001" transform="matrix(1,0,0,1,184.072,57.6655)">
		<text id="dp_text002" xml:space="preserve" fill="white" font-family="Raleway Black" font-size="79" font-weight="700" x="75.8907" y="90.8333">dra</text>
		<text id="dp_text003" xml:space="preserve" fill="white" font-family="Raleway Thin" font-size="79" font-weight="700" x="208.051" y="90.8333">mate</text>
	</g>
	<g id="dp_dp004" transform="matrix(1,0,0,1,184.072,176.193)">
		<text id="dp_text005" xml:space="preserve" fill="#38b3a2" font-family="Open Sans" font-size="23" font-weight="400" x="80.1653" y="23.3333">a drama</text>
		<text id="dp_text006" xml:space="preserve" fill="white" font-family="Open Sans" font-size="23" font-weight="400" x="166.78" y="23.3333"> </text>
		<text id="dp_text007" xml:space="preserve" fill="#efba51" font-family="Open Sans" font-size="23" font-weight="400" x="173.385" y="23.3333">student’s</text>
		<text id="dp_text008" xml:space="preserve" fill="white" font-family="Open Sans" font-size="23" font-weight="400" x="267.667" y="23.3333"> </text>
		<text id="dp_text009" xml:space="preserve" fill="#b9d688" font-family="Open Sans" font-size="23" font-weight="400" x="274.272" y="23.3333">best friend</text>
	</g>
	<path id="dp_path010" transform="matrix(0.972248,0.233953,-0.233956,0.972247,109.307,22.5566)" fill="#e65372" fill-rule="evenodd" stroke="none" stroke-width="0" d="M 1.40933,0 C 52.128,26.544 105.243,26.544 156.123,0 C 156.123,0 174.465,122.508 78.7667,183.763 C -16.9333,122.508 1.40933,0 1.40933,0 Z "/>
	<path id="dp_path011" transform="matrix(0.972002,0.234971,-0.234974,0.972002,142.058,80.298)" fill="white" fill-rule="evenodd" stroke="none" stroke-width="0" d="M 86.5307,61.684 L 81.9733,61.684 L 81.9733,27.916 C 81.9733,19.8187 80.776,13.8813 78.3773,10.112 C 75.9893,6.35067 72.332,4.46133 67.4293,4.46133 C 62.1547,4.46133 57.5587,6.27333 53.644,9.9 C 49.732,13.5267 47.036,18.132 45.5493,23.732 L 45.5493,61.684 L 40.9813,61.684 L 40.9813,27.916 C 40.9813,19.6453 39.812,13.6693 37.46,9.98667 C 35.112,6.30267 31.4747,4.46133 26.5547,4.46133 C 21.364,4.46133 16.8067,6.24533 12.884,9.80533 C 8.96933,13.364 6.188,17.9773 4.55733,23.648 L 4.55733,61.684 L 0,61.684 L 0,0.862667 L 4.55733,0.862667 L 4.55733,15.9333 C 5.71867,11.1373 8.39467,7.29067 12.568,4.37467 C 16.74,1.45733 21.2587,0 26.104,0 C 31.3133,0 35.6387,1.64 39.0827,4.92133 C 42.5267,8.20267 44.3973,12.212 44.684,16.9427 C 46.508,11.56 49.444,7.38667 53.5027,4.432 C 57.5587,1.476 62.2013,0 67.4293,0 C 70.6933,0 73.524,0.585333 75.9107,1.764 C 78.3093,2.936 80.3053,4.71067 81.9067,7.08 C 83.5187,9.44933 84.6893,12.3747 85.428,15.8667 C 86.1667,19.3587 86.5307,23.368 86.5307,27.916 Z "/>
	<path id="dp_path012" transform="matrix(0.993749,-0.111642,0.111643,0.993748,-0.0392968,17.5834)" fill="#282426" fill-rule="evenodd" stroke="none" stroke-width="0" d="M 1.40933,0 C 52.128,26.544 105.243,26.544 156.12,0 C 156.12,0 174.463,122.508 78.7667,183.763 C -16.9333,122.508 1.40933,0 1.40933,0 Z "/>
	<path id="dp_path013" transform="matrix(0.994113,-0.108346,0.108347,0.994113,36.8493,51.3254)" fill="white" fill-rule="evenodd" stroke="none" stroke-width="0" d="M 0,62.404 C 0,55.6133 1.304,49.5413 3.91467,44.1787 C 6.524,38.8267 10.1293,34.6027 14.7293,31.5053 C 19.3307,28.42 24.5947,26.872 30.5213,26.872 C 35.032,26.872 39.1907,27.912 42.996,29.992 C 46.7987,32.0707 49.6747,34.924 51.6213,38.5507 L 51.6213,0 L 76.836,0 L 76.836,69.004 C 76.836,71.3933 77.1893,73.0533 77.8973,73.9813 C 78.6053,74.9107 79.8427,75.464 81.6133,75.64 L 81.6133,96.872 C 77.2773,97.7587 73.7387,98.1987 70.996,98.1987 C 66.7493,98.1987 63.388,97.404 60.9107,95.8107 C 58.4333,94.2187 56.8413,91.7853 56.1333,88.5133 L 55.6013,85.992 C 53.2133,90.2373 49.984,93.3347 45.9147,95.28 C 41.8453,97.2267 37.5107,98.1987 32.9107,98.1987 C 28.1333,98.1987 23.7307,97.3267 19.7053,95.5907 C 15.6813,93.8427 12.1867,91.388 9.22267,88.204 C 6.25867,85.0293 3.98,81.236 2.38933,76.8467 C 0.794667,72.444 0,67.6347 0,62.404 Z M 51.7533,70.0667 L 51.7533,58.068 C 50.9573,56.1107 49.8747,54.3867 48.5027,52.8933 C 47.1307,51.4 45.6067,50.228 43.924,49.376 C 42.2427,48.524 40.5187,48.1053 38.7493,48.1053 C 36.8907,48.1053 35.188,48.4933 33.64,49.2547 C 32.092,50.0173 30.7427,51.08 29.592,52.4507 C 28.4427,53.8107 27.5587,55.3813 26.9387,57.1733 C 26.3187,58.964 26.0093,60.8773 26.0093,62.9227 C 26.0093,65.0467 26.3413,66.9587 27.0053,68.6627 C 27.668,70.3653 28.6187,71.836 29.8587,73.0747 C 31.096,74.3027 32.556,75.2653 34.2373,75.9507 C 35.9187,76.624 37.776,76.968 39.8093,76.968 C 41.0493,76.968 42.1987,76.824 43.2613,76.5253 C 44.3227,76.2267 45.34,75.7947 46.3133,75.2427 C 47.2853,74.6893 48.236,73.9707 49.1667,73.0747 C 50.096,72.1787 50.9573,71.184 51.7533,70.0667 Z "/>
</svg>